<svg width="262" height="79" viewBox="0 0 262 79" fill="none" xmlns="http://www.w3.org/2000/svg">
<path d="M46.2972 69.7835C44.8092 69.7835 43.4892 69.5315 42.3372 69.0275C41.2092 68.5235 40.3212 67.8275 39.6732 66.9395C39.0492 66.0275 38.7372 64.9835 38.7372 63.8075C38.7372 62.0315 39.4692 60.6155 40.9332 59.5595C42.4212 58.5035 44.4252 57.9755 46.9452 57.9755C49.1292 57.9755 50.8812 58.4435 52.2012 59.3795V58.5155C52.2012 57.3875 51.8532 56.5235 51.1572 55.9235C50.4612 55.3235 49.4532 55.0235 48.1332 55.0235C46.1652 55.0235 44.4732 55.4435 43.0572 56.2835C42.4572 56.6195 41.9412 56.7875 41.5092 56.7875C40.9812 56.7875 40.5132 56.5475 40.1052 56.0675C39.8412 55.7315 39.7092 55.3835 39.7092 55.0235C39.7092 54.4235 40.0212 53.8955 40.6452 53.4395C41.5092 52.8155 42.6012 52.3235 43.9212 51.9635C45.2412 51.6035 46.6332 51.4235 48.0972 51.4235C50.8812 51.4235 53.0652 52.0595 54.6492 53.3315C56.2572 54.5795 57.0612 56.3075 57.0612 58.5155V67.7675C57.0612 68.3915 56.8452 68.8835 56.4132 69.2435C56.0052 69.6035 55.4412 69.7835 54.7212 69.7835C53.9772 69.7835 53.4012 69.6155 52.9932 69.2795C52.5852 68.9435 52.3812 68.4635 52.3812 67.8395V67.4435C51.0132 69.0035 48.9852 69.7835 46.2972 69.7835ZM47.4132 66.4715C48.9252 66.4715 50.1012 66.2435 50.9412 65.7875C51.8052 65.3075 52.2372 64.6475 52.2372 63.8075C52.2372 63.0155 51.8052 62.3795 50.9412 61.8995C50.0772 61.4195 48.9252 61.1795 47.4852 61.1795C46.1892 61.1795 45.1812 61.4075 44.4612 61.8635C43.7652 62.3195 43.4172 62.9675 43.4172 63.8075C43.4172 64.6475 43.7652 65.3075 44.4612 65.7875C45.1572 66.2435 46.1412 66.4715 47.4132 66.4715ZM66.5488 69.7835C63.8848 69.7835 62.1928 68.1995 61.4728 65.0315L58.9888 53.8715C58.9408 53.5835 58.9168 53.3915 58.9168 53.2955C58.9168 52.6955 59.1208 52.2395 59.5288 51.9275C59.9608 51.5915 60.5608 51.4235 61.3288 51.4235C62.0968 51.4235 62.7208 51.5915 63.2008 51.9275C63.6808 52.2635 63.9688 52.7315 64.0648 53.3315L66.0449 65.2835C66.1169 65.7875 66.2849 66.0395 66.5488 66.0395C66.8369 66.0395 67.0169 65.7995 67.0889 65.3195L68.4569 55.3835C68.6489 54.1115 69.1169 53.1395 69.8608 52.4675C70.6049 51.7715 71.5649 51.4235 72.7409 51.4235C73.9169 51.4235 74.8768 51.7715 75.6208 52.4675C76.3649 53.1395 76.8329 54.1115 77.0249 55.3835L78.3929 65.3195C78.4649 65.7995 78.6449 66.0395 78.9328 66.0395C79.1969 66.0395 79.3649 65.7875 79.4368 65.2835L81.4169 53.3315C81.5129 52.7315 81.8009 52.2635 82.2809 51.9275C82.7609 51.5915 83.3849 51.4235 84.1529 51.4235C84.9209 51.4235 85.5089 51.5915 85.9169 51.9275C86.3489 52.2395 86.5649 52.6955 86.5649 53.2955C86.5649 53.3915 86.5409 53.5835 86.4929 53.8715L84.0089 65.0315C83.2889 68.1995 81.5968 69.7835 78.9328 69.7835C77.6128 69.7835 76.5928 69.3755 75.8729 68.5595C75.1529 67.7435 74.6729 66.4715 74.4328 64.7435L73.2449 55.8875C73.2209 55.6235 73.1609 55.4435 73.0649 55.3475C72.9929 55.2275 72.8849 55.1675 72.7409 55.1675C72.5969 55.1675 72.4769 55.2275 72.3809 55.3475C72.3089 55.4435 72.2608 55.6235 72.2369 55.8875L71.0489 64.7435C70.8089 66.4715 70.3288 67.7435 69.6088 68.5595C68.8888 69.3755 67.8688 69.7835 66.5488 69.7835ZM97.3452 69.7835C93.4812 69.7835 90.6372 68.6675 88.8132 66.4355C88.4292 65.9315 88.2372 65.4755 88.2372 65.0675C88.2372 64.4915 88.5372 63.9875 89.1372 63.5555C89.5452 63.2915 89.9412 63.1595 90.3252 63.1595C90.8532 63.1595 91.3452 63.3875 91.8012 63.8435C92.6172 64.6595 93.4092 65.2475 94.1772 65.6075C94.9692 65.9435 95.9412 66.1115 97.0932 66.1115C98.0772 66.1115 98.9052 65.9795 99.5772 65.7155C100.249 65.4515 100.585 65.1275 100.585 64.7435C100.585 64.2635 100.309 63.8555 99.7572 63.5195C99.2052 63.1835 98.0892 62.7515 96.4092 62.2235C93.7692 61.4075 91.8972 60.5555 90.7932 59.6675C89.6892 58.7555 89.1372 57.6275 89.1372 56.2835C89.1372 54.7715 89.7852 53.5835 91.0812 52.7195C92.3772 51.8555 94.1652 51.4235 96.4452 51.4235C98.1972 51.4235 99.7812 51.6875 101.197 52.2155C102.613 52.7435 103.645 53.4515 104.293 54.3395C104.605 54.7475 104.761 55.1555 104.761 55.5635C104.761 56.1395 104.473 56.6075 103.897 56.9675C103.489 57.2315 103.069 57.3635 102.637 57.3635C101.941 57.3635 101.305 57.0755 100.729 56.4995C100.249 56.0435 99.6252 55.6955 98.8572 55.4555C98.1132 55.2155 97.2972 55.0955 96.4092 55.0955C94.7292 55.0955 93.8892 55.4915 93.8892 56.2835C93.8892 56.5955 94.0212 56.8715 94.2852 57.1115C94.5492 57.3515 95.0172 57.6035 95.6892 57.8675C96.3852 58.1315 97.4652 58.4915 98.9292 58.9475C101.281 59.6675 102.925 60.4595 103.861 61.3235C104.821 62.1875 105.301 63.3275 105.301 64.7435C105.301 66.2555 104.605 67.4795 103.213 68.4155C101.821 69.3275 99.8652 69.7835 97.3452 69.7835ZM118.618 69.7835C116.53 69.7835 114.67 69.4115 113.038 68.6675C111.43 67.8995 110.17 66.8195 109.258 65.4275C108.346 64.0355 107.89 62.4275 107.89 60.6035C107.89 58.7795 108.346 57.1715 109.258 55.7795C110.17 54.3875 111.43 53.3195 113.038 52.5755C114.67 51.8075 116.53 51.4235 118.618 51.4235C120.706 51.4235 122.554 51.8075 124.162 52.5755C125.794 53.3195 127.066 54.3875 127.978 55.7795C128.89 57.1715 129.346 58.7795 129.346 60.6035C129.346 62.4275 128.89 64.0355 127.978 65.4275C127.066 66.8195 125.794 67.8995 124.162 68.6675C122.554 69.4115 120.706 69.7835 118.618 69.7835ZM118.618 66.0395C120.466 66.0395 121.918 65.5595 122.974 64.5995C124.054 63.6395 124.594 62.3075 124.594 60.6035C124.594 58.8995 124.054 57.5675 122.974 56.6075C121.918 55.6475 120.466 55.1675 118.618 55.1675C116.77 55.1675 115.306 55.6475 114.226 56.6075C113.17 57.5675 112.642 58.8995 112.642 60.6035C112.642 62.3075 113.17 63.6395 114.226 64.5995C115.306 65.5595 116.77 66.0395 118.618 66.0395ZM134.109 69.7835C133.365 69.7835 132.789 69.5915 132.381 69.2075C131.973 68.8235 131.769 68.2955 131.769 67.6235V53.5835C131.769 52.9115 131.973 52.3835 132.381 51.9995C132.789 51.6155 133.365 51.4235 134.109 51.4235C134.829 51.4235 135.405 51.6155 135.837 51.9995C136.269 52.3835 136.485 52.9115 136.485 53.5835V54.4475C137.037 53.4875 137.733 52.7435 138.573 52.2155C139.413 51.6875 140.325 51.4235 141.309 51.4235C142.317 51.4235 143.229 51.6995 144.045 52.2515C144.861 52.7795 145.473 53.5115 145.881 54.4475C147.585 52.4315 149.517 51.4235 151.677 51.4235C153.597 51.4235 155.097 52.0955 156.177 53.4395C157.257 54.7835 157.797 56.6555 157.797 59.0555V67.6235C157.797 68.2955 157.581 68.8235 157.149 69.2075C156.717 69.5915 156.141 69.7835 155.421 69.7835C154.677 69.7835 154.101 69.5915 153.693 69.2075C153.285 68.8235 153.081 68.2955 153.081 67.6235V58.7675C153.081 57.5915 152.865 56.7035 152.433 56.1035C152.025 55.4795 151.413 55.1675 150.597 55.1675C149.901 55.1675 149.289 55.3595 148.761 55.7435C148.233 56.1275 147.741 56.7395 147.285 57.5795V67.6235C147.285 68.2955 147.069 68.8235 146.637 69.2075C146.205 69.5915 145.629 69.7835 144.909 69.7835C144.165 69.7835 143.589 69.5915 143.181 69.2075C142.773 68.8235 142.569 68.2955 142.569 67.6235V59.5235C142.569 56.6195 141.741 55.1675 140.085 55.1675C138.957 55.1675 138.069 55.6115 137.421 56.4995C136.797 57.3875 136.485 58.6115 136.485 60.1715V67.6235C136.485 68.2955 136.269 68.8235 135.837 69.2075C135.405 69.5915 134.829 69.7835 134.109 69.7835ZM170.742 69.7835C168.678 69.7835 166.878 69.4115 165.342 68.6675C163.806 67.9235 162.618 66.8795 161.778 65.5355C160.962 64.1675 160.554 62.5715 160.554 60.7475C160.554 57.7955 161.406 55.5035 163.11 53.8715C164.838 52.2395 167.262 51.4235 170.382 51.4235C172.302 51.4235 173.994 51.7235 175.458 52.3235C176.946 52.9235 178.098 53.7635 178.914 54.8435C179.754 55.8995 180.174 57.1115 180.174 58.4795C180.174 59.6315 179.802 60.5195 179.058 61.1435C178.338 61.7675 177.306 62.0795 175.962 62.0795H165.126C165.126 63.4235 165.594 64.4435 166.53 65.1395C167.49 65.8115 168.894 66.1475 170.742 66.1475C172.686 66.1475 174.342 65.7155 175.71 64.8515C176.478 64.3715 177.078 64.1315 177.51 64.1315C177.918 64.1315 178.314 64.3235 178.698 64.7075C179.106 65.1155 179.31 65.5595 179.31 66.0395C179.31 66.6155 179.07 67.0715 178.59 67.4075C177.582 68.1755 176.406 68.7635 175.062 69.1715C173.718 69.5795 172.278 69.7835 170.742 69.7835ZM174.522 58.7675C174.93 58.7675 175.218 58.6955 175.386 58.5515C175.554 58.3835 175.638 58.1195 175.638 57.7595C175.638 56.9195 175.158 56.2595 174.198 55.7795C173.262 55.2995 171.99 55.0595 170.382 55.0595C168.774 55.0595 167.502 55.3955 166.566 56.0675C165.654 56.7395 165.198 57.6395 165.198 58.7675H174.522ZM198.885 69.4235C197.061 69.4235 195.645 68.9435 194.637 67.9835C193.629 67.0235 193.125 65.6795 193.125 63.9515V49.5515C193.125 47.8715 193.605 46.5635 194.565 45.6275C195.549 44.6915 196.905 44.2235 198.633 44.2235H203.673C206.433 44.2235 208.821 44.7275 210.837 45.7355C212.853 46.7435 214.389 48.1955 215.445 50.0915C216.525 51.9875 217.065 54.2435 217.065 56.8595C217.065 59.4755 216.525 61.7315 215.445 63.6275C214.389 65.4995 212.853 66.9395 210.837 67.9475C208.845 68.9315 206.457 69.4235 203.673 69.4235H198.885ZM203.313 65.7155C206.313 65.7155 208.545 64.9955 210.009 63.5555C211.473 62.0915 212.205 59.8595 212.205 56.8595C212.205 53.8595 211.461 51.6275 209.973 50.1635C208.509 48.6755 206.289 47.9315 203.313 47.9315H199.461C198.981 47.9315 198.597 48.0875 198.309 48.3995C198.045 48.7115 197.913 49.1435 197.913 49.6955V63.9515C197.913 64.5035 198.045 64.9355 198.309 65.2475C198.597 65.5595 198.981 65.7155 199.461 65.7155H203.313ZM227.563 69.7835C226.075 69.7835 224.755 69.5315 223.603 69.0275C222.475 68.5235 221.587 67.8275 220.939 66.9395C220.315 66.0275 220.003 64.9835 220.003 63.8075C220.003 62.0315 220.735 60.6155 222.199 59.5595C223.687 58.5035 225.691 57.9755 228.211 57.9755C230.395 57.9755 232.147 58.4435 233.467 59.3795V58.5155C233.467 57.3875 233.119 56.5235 232.423 55.9235C231.727 55.3235 230.719 55.0235 229.399 55.0235C227.431 55.0235 225.739 55.4435 224.323 56.2835C223.723 56.6195 223.207 56.7875 222.775 56.7875C222.247 56.7875 221.779 56.5475 221.371 56.0675C221.107 55.7315 220.975 55.3835 220.975 55.0235C220.975 54.4235 221.287 53.8955 221.911 53.4395C222.775 52.8155 223.867 52.3235 225.187 51.9635C226.507 51.6035 227.899 51.4235 229.363 51.4235C232.147 51.4235 234.331 52.0595 235.915 53.3315C237.523 54.5795 238.327 56.3075 238.327 58.5155V67.7675C238.327 68.3915 238.111 68.8835 237.679 69.2435C237.271 69.6035 236.707 69.7835 235.987 69.7835C235.243 69.7835 234.667 69.6155 234.259 69.2795C233.851 68.9435 233.647 68.4635 233.647 67.8395V67.4435C232.279 69.0035 230.251 69.7835 227.563 69.7835ZM228.679 66.4715C230.191 66.4715 231.367 66.2435 232.207 65.7875C233.071 65.3075 233.503 64.6475 233.503 63.8075C233.503 63.0155 233.071 62.3795 232.207 61.8995C231.343 61.4195 230.191 61.1795 228.751 61.1795C227.455 61.1795 226.447 61.4075 225.727 61.8635C225.031 62.3195 224.683 62.9675 224.683 63.8075C224.683 64.6475 225.031 65.3075 225.727 65.7875C226.423 66.2435 227.407 66.4715 228.679 66.4715ZM250.385 78.4235C248.633 78.4235 247.037 78.1475 245.597 77.5955C244.181 77.0675 243.089 76.3235 242.321 75.3635C242.009 74.9555 241.853 74.5355 241.853 74.1035C241.853 73.5275 242.129 72.9995 242.681 72.5195C243.041 72.2315 243.437 72.0875 243.869 72.0875C244.517 72.0875 245.141 72.4115 245.741 73.0595C246.773 74.1635 248.285 74.7155 250.277 74.7155C251.981 74.7155 253.265 74.2595 254.129 73.3475C255.017 72.4595 255.461 71.1515 255.461 69.4235V67.9115C254.885 68.4635 254.141 68.9195 253.229 69.2795C252.317 69.6155 251.453 69.7835 250.637 69.7835C247.637 69.7835 245.297 68.9915 243.617 67.4075C241.937 65.7995 241.097 63.5675 241.097 60.7115V53.4395C241.097 52.8635 241.325 52.3835 241.781 51.9995C242.237 51.6155 242.801 51.4235 243.473 51.4235C244.121 51.4235 244.673 51.6275 245.129 52.0355C245.585 52.4195 245.813 52.8875 245.813 53.4395V60.7115C245.813 62.4395 246.233 63.7835 247.073 64.7435C247.937 65.7035 249.125 66.1835 250.637 66.1835C252.101 66.1835 253.241 65.7035 254.057 64.7435C254.873 63.7835 255.281 62.4395 255.281 60.7115V53.8355C255.281 53.0675 255.485 52.4795 255.893 52.0715C256.325 51.6395 256.913 51.4235 257.657 51.4235C258.401 51.4235 258.977 51.6395 259.385 52.0715C259.793 52.4795 259.997 53.0675 259.997 53.8355V68.8115C259.997 71.8355 259.145 74.1875 257.441 75.8675C255.761 77.5715 253.409 78.4235 250.385 78.4235Z" fill="#5856D6"/>
<path d="M26.1174 29.1421C23.086 34.9685 19.6064 39.7823 16.3367 42.8044C14.6992 44.318 13.1691 45.3309 11.826 45.8274C10.4997 46.3177 9.44314 46.2785 8.59764 45.8407C7.75214 45.403 7.1118 44.5637 6.75031 43.1995C6.38425 41.8181 6.33394 39.9869 6.63213 37.78C7.22754 33.3733 9.17082 27.764 12.2022 21.9376C15.2336 16.1111 18.7132 11.2973 21.9829 8.27522C23.6204 6.76167 25.1504 5.74873 26.4935 5.25223C27.8198 4.76193 28.8764 4.80119 29.7219 5.23894C30.5674 5.6767 31.2078 6.51601 31.5693 7.88015C31.9353 9.26156 31.9856 11.0927 31.6874 13.2997C31.092 17.7064 29.1488 23.3156 26.1174 29.1421Z" fill="#5856D6" stroke="#5856D6" stroke-width="2.43034"/>
<rect x="20.6446" y="37.2323" width="6.57551" height="29.9116" rx="3.28776" fill="#5856D6" stroke="#5856D6" stroke-width="2.43034"/>
<path d="M66.2159 29.8099C66.2159 34.4883 63.723 38.1257 59.2316 40.7713C54.6395 43.4762 48.1855 44.9507 41.2801 44.9507C29.1697 44.9507 21.273 34.059 21.273 22.8895C21.273 20.6386 22.2472 17.4603 24.2584 14.1928C26.2403 10.9729 29.0244 8.00603 32.2129 6.06374C35.3714 4.13975 38.8008 3.28453 42.3034 3.95617C45.8096 4.62848 49.9073 6.93068 54.1994 12.3124C57.8472 16.8862 61.0241 19.4328 62.9726 20.9947C63.5721 21.4753 64.0553 21.8626 64.4001 22.1871C65.0727 22.8199 65.4128 23.3055 65.6721 24.1325C65.9873 25.1375 66.2159 26.7775 66.2159 29.8099Z" stroke="#5856D6" stroke-width="7.29103"/>
<path d="M71.2655 25.542C71.2655 27.0852 70.0107 28.3413 68.4564 28.3413C66.9022 28.3413 65.6473 27.0852 65.6473 25.542C65.6473 23.9988 66.9022 22.7427 68.4564 22.7427C70.0107 22.7427 71.2655 23.9988 71.2655 25.542Z" fill="#5856D6" stroke="#5856D6" stroke-width="2.43034"/>
<path d="M39.0711 20.4553C39.0711 21.3257 38.8044 22.0671 38.431 22.5637C38.058 23.0599 37.6346 23.2546 37.2681 23.2546C36.9016 23.2546 36.4782 23.0599 36.1052 22.5637C35.7318 22.0671 35.465 21.3257 35.465 20.4553C35.465 19.585 35.7318 18.8435 36.1052 18.3469C36.4782 17.8508 36.9016 17.656 37.2681 17.656C37.6346 17.656 38.058 17.8508 38.431 18.3469C38.8044 18.8435 39.0711 19.585 39.0711 20.4553Z" fill="#5856D6" stroke="#5856D6" stroke-width="2.43034"/>
</svg>
